<svg id="bot-avatar-image" width="128px" height="128px" viewBox="0 0 128 128" version="1.1" xmlns="http://www.w3.org/2000/svg" xmlns:xlink="http://www.w3.org/1999/xlink"><g id="circle-background" stroke="none" stroke-width="1" fill="none" fill-rule="evenodd"><rect fill="#0a70ff" x="0" y="0" width="128" height="128"></rect><rect id="circle-background_overlay" fill-opacity="0.85" fill="#FFFFFF" x="0" y="0" width="128" height="128"></rect></g><g id="Body"><path id="Torso" fill-rule="evenodd" clip-rule="evenodd" d="M97.8267 128.181C97.8267 128.181 89.5 104 64.4999 104C39.4998 104 31.1653 128.181 31.1653 128.181H97.8267Z" fill="#0a70ff"></path><rect id="Neck" x="60.6709" y="95" width="8.35443" height="11.8261" fill="#0a70ff"></rect></g><g id="Ears/ears-1" stroke="none" stroke-width="1" fill="none" fill-rule="evenodd"><path d="M12.1627735,53 L24.9285,53 C27.7294121,53 30,55.2705879 30,58.0715 L30,70.9285 C30,73.7294121 27.7294121,76 24.9285,76 L12,76 L12.1627735,53 Z" id="ears-1_right" fill="#0a70ff" transform="translate(21.000000, 64.500000) scale(-1, 1) translate(-21.000000, -64.500000) "></path><path d="M97.1606526,53 L110.9285,53 C113.729412,53 116,55.2705879 116,58.0715 L116,70.9285 C116,73.7294121 113.729412,76 110.9285,76 L97,76 L97.1606526,53 Z" id="ears-1_left" fill="#0a70ff"></path><path d="M12.1627735,53 L24.9285,53 C27.7294121,53 30,55.2705879 30,58.0715 L30,70.9285 C30,73.7294121 27.7294121,76 24.9285,76 L12,76 L12.1627735,53 Z" id="ears-1_black-overlay-left" fill-opacity="0.15" fill="#000000" transform="translate(21.000000, 64.500000) scale(-1, 1) translate(-21.000000, -64.500000) "></path><path d="M97.1606526,53 L110.9285,53 C113.729412,53 116,55.2705879 116,58.0715 L116,70.9285 C116,73.7294121 113.729412,76 110.9285,76 L97,76 L97.1606526,53 Z" id="ears-1_black-overlay-right" fill-opacity="0.15" fill="#000000"></path></g><g id="Head/head-2" stroke="none" stroke-width="1" fill="none" fill-rule="evenodd"><path d="M42.3598179,38.6294787 C49.6808244,37.5431596 57.0018308,37 64.3228372,37 C71.6439551,37 78.965073,37.5431761 86.2861909,38.6295283 C100.200594,40.6942247 109.990943,53.3930251 108.44791,67.3748929 C106.850179,81.8523967 95.7008723,93.437288 81.2951935,95.588399 C74.9930555,96.5294663 69.3356033,97 64.3228369,97 C58.87206,97 52.5240047,96.4436442 45.278671,95.3309327 C31.1979916,93.1684887 20.4692266,81.5801845 19.396199,67.3748929 C18.3295587,53.2541598 28.3522251,40.7079801 42.3598179,38.6294787 Z" id="Head-2" fill="#0a70ff"></path></g><g id="Eyes/eyes-1" stroke="none" stroke-width="1" fill="none" fill-rule="evenodd"><rect id="eyes-1_oval" fill="#FFFFFF" x="30" y="54" width="68" height="22" rx="10.6368996"></rect><ellipse id="eyes-1_left" fill="#0a70ff" cx="45.8759294" cy="64.8549413" rx="7.87592939" ry="7.85494127"></ellipse><ellipse id="eyes-1_black-overlay_left" fill-opacity="0.5" fill="#000000" cx="45.8759294" cy="64.8549413" rx="7.87592939" ry="7.85494127"></ellipse><ellipse id="eyes-1_right" fill="#0a70ff" cx="81.8759294" cy="64.8549413" rx="7.87592939" ry="7.85494127"></ellipse><ellipse id="eyes-1_black-overlay_right" fill-opacity="0.5" fill="#000000" cx="81.8759294" cy="64.8549413" rx="7.87592939" ry="7.85494127"></ellipse></g><g id="Mouth/mouth-2" stroke="none" stroke-width="1" fill="none" fill-rule="evenodd"><path d="M53.0518992,82.1276055 C53.6903252,81.3932862 57.7575124,84.0678974 63.8047994,84.0678974 C69.8520864,84.0678974 74.5166967,81.3985115 74.9737477,82.1276055 C75.4307987,82.8566995 69.8485064,90 63.8047994,90 C57.7610924,90 52.4134732,82.8619248 53.0518992,82.1276055 Z" id="mouth-2" fill="#0a70ff"></path><path d="M53.0518992,82.1276055 C53.6903252,81.3932862 57.7575124,84.0678974 63.8047994,84.0678974 C69.8520864,84.0678974 74.5166967,81.3985115 74.9737477,82.1276055 C75.4307987,82.8566995 69.8485064,90 63.8047994,90 C57.7610924,90 52.4134732,82.8619248 53.0518992,82.1276055 Z" id="mouth-2_black-overlay" fill-opacity="0.5" fill="#000000"></path></g><g id="Antenna/antenna-1" stroke="none" stroke-width="1" fill="none" fill-rule="evenodd"><rect id="Rectangle" fill="#0a70ff" x="62.4705882" y="25.9714286" width="3.38235294" height="8.22857143"></rect><path d="M75.9999991,39 C75.9999991,35.4960288 70.8512791,32.1428571 64.50001,32.1428571 C58.148741,32.1428571 52.9974466,35.5714286 52.9999991,39 L75.9999991,39 Z" id="Path" fill="#0a70ff"></path><path d="M75.9999991,39 C75.9999991,35.4960288 70.8512791,32.1428571 64.50001,32.1428571 C58.148741,32.1428571 52.9974466,35.5714286 52.9999991,39 L75.9999991,39 Z" id="Path" fill-opacity="0.15" fill="#000000"></path><ellipse id="Oval" fill="#0a70ff" cx="64.1617647" cy="21.5142857" rx="6.42647059" ry="6.51428571"></ellipse><ellipse id="Oval" fill-opacity="0.15" fill="#000000" cx="64.1617647" cy="21.5142857" rx="6.42647059" ry="6.51428571"></ellipse></g> </svg>